<svg version="1.1" id="Layer_1" xmlns="http://www.w3.org/2000/svg" xmlns:xlink="http://www.w3.org/1999/xlink" x="0px" y="0px"
	 width="100%" viewBox="0 0 500 500" enable-background="new 0 0 500 500" xml:space="preserve">
<path fill="#FFFFFF" opacity="1.000000" stroke="none" 
	d="
M501.000000,248.000000 
	C501.000000,332.315125 501.000000,416.630249 501.000000,500.972687 
	C334.387512,500.972687 167.775040,500.972687 1.081282,500.972687 
	C1.081282,334.423523 1.081282,167.847015 1.081282,1.135254 
	C167.666595,1.135254 334.333282,1.135254 501.000000,1.128347 
	C501.000000,80.770950 501.000000,160.420471 500.630737,240.696152 
	C491.944733,240.622635 483.627991,239.922958 475.467682,239.236450 
	C475.467682,249.125931 475.467682,257.825562 475.467682,266.454163 
	C478.799713,266.454163 481.721466,266.454163 485.075958,266.454163 
	C485.075958,260.388855 485.295258,254.602936 485.005829,248.842575 
	C484.778595,244.319931 488.482056,243.439774 490.184601,245.129456 
	C493.575958,248.495239 497.616730,246.469910 501.000000,248.000000 
M275.718048,254.910141 
	C276.854950,258.030731 277.778564,261.256226 279.236145,264.219086 
	C279.800842,265.366913 281.587250,266.581543 282.792725,266.557190 
	C283.982056,266.533203 285.638336,265.226746 286.216797,264.052765 
	C287.781586,260.877075 288.882477,257.472809 290.167419,254.159241 
	C290.520020,254.219360 290.872650,254.279465 291.225250,254.339584 
	C291.225250,258.339355 291.225250,262.339142 291.225250,266.412537 
	C294.693329,266.412537 297.584381,266.412537 300.550232,266.412537 
	C300.550232,253.852356 300.550232,241.627686 300.550232,229.446106 
	C290.671814,228.097702 290.719666,228.113922 287.712250,236.984741 
	C286.233704,241.345795 284.540222,245.633942 282.664703,250.711243 
	C280.718079,245.404907 279.034363,240.939285 277.440094,236.441971 
	C274.664886,228.613327 274.687836,228.600616 266.470612,229.007355 
	C265.993622,229.030960 265.524811,229.220535 264.951660,229.356766 
	C264.951660,241.767090 264.951660,254.134720 264.951660,266.482666 
	C268.094757,266.482666 270.864532,266.482666 274.063110,266.482666 
	C274.063110,262.443573 274.039642,258.655609 274.119232,254.869781 
	C274.124207,254.633301 274.936432,254.413757 275.718048,254.910141 
M212.138565,242.876007 
	C212.014969,245.858551 211.771530,248.841782 211.788574,251.823517 
	C211.860825,264.463867 208.434753,267.214203 226.944641,266.719116 
	C227.229782,266.711517 227.520233,266.901672 227.957886,267.050415 
	C227.957886,268.878204 227.957886,270.748993 227.957886,272.750061 
	C225.943344,272.750061 223.229492,273.333862 222.866669,272.657135 
	C220.113953,267.522919 215.800446,270.401306 212.141541,269.823181 
	C210.833374,274.683990 212.819931,277.522949 217.167084,277.902710 
	C222.448776,278.364166 227.851685,278.376495 233.102432,277.748840 
	C234.959457,277.526855 237.930771,274.906128 237.993958,273.286957 
	C238.426468,262.204285 238.220810,251.096741 238.220810,239.707504 
	C231.236267,239.707504 224.777023,239.517776 218.341095,239.821518 
	C216.374008,239.914337 214.470901,241.362762 212.138565,242.876007 
M435.970703,265.440674 
	C435.970703,256.990021 435.970703,248.539368 435.970703,239.660706 
	C430.368042,239.660706 425.244568,239.656281 420.121063,239.661636 
	C410.051392,239.672180 409.264130,240.350662 409.400665,250.384369 
	C409.603577,265.293732 405.835846,266.803772 425.710754,266.871277 
	C425.710754,268.763428 425.710754,270.652740 425.710754,272.981812 
	C423.597961,272.851501 420.628540,273.329681 420.238129,272.537262 
	C417.647858,267.279480 413.363983,270.694000 409.989716,269.742401 
	C409.041870,275.406006 410.567596,277.735260 415.675842,278.058014 
	C419.989746,278.330536 424.340088,278.259247 428.663940,278.084137 
	C434.415527,277.851166 435.933533,276.139984 435.969299,270.411682 
	C435.977600,269.078918 435.970642,267.746094 435.970703,265.440674 
M146.013062,239.652435 
	C143.409225,239.652435 140.805374,239.652435 137.817963,239.652435 
	C137.817963,235.663879 137.817963,232.051880 137.817963,228.226181 
	C134.387314,228.226181 131.350555,228.226181 127.960724,228.226181 
	C127.960724,234.846237 127.960724,241.148224 127.960724,247.450226 
	C127.960724,253.726334 127.960724,260.002441 127.960724,266.357910 
	C131.582870,266.357910 134.618439,266.357910 138.129974,266.357910 
	C138.129974,259.043030 138.129974,252.122147 138.129974,245.220993 
	C140.532410,245.220993 142.447098,245.220993 144.786972,245.220993 
	C144.786972,252.526627 144.786972,259.478027 144.786972,266.343018 
	C148.275391,266.343018 151.312439,266.343018 154.623138,266.343018 
	C154.623138,259.949463 154.635178,253.968414 154.619919,247.987457 
	C154.603058,241.373978 153.799240,240.518906 146.013062,239.652435 
M375.725494,256.297577 
	C375.542053,260.840332 374.936554,265.987732 381.353271,266.433472 
	C388.150391,266.905670 395.005707,266.539551 401.916748,266.539551 
	C401.916748,257.382843 401.916748,248.667435 401.916748,239.695679 
	C395.215454,239.695679 388.780670,239.563873 382.354401,239.741074 
	C377.917419,239.863403 375.174957,241.833771 375.675903,246.905884 
	C375.951782,249.699280 375.725494,252.542236 375.725494,256.297577 
M67.291779,239.725983 
	C62.664940,240.218002 60.607105,242.653763 60.935860,247.417816 
	C61.209805,251.387650 61.171120,255.401825 60.941582,259.377350 
	C60.705391,263.467987 62.596062,266.097992 66.392014,266.312927 
	C73.365883,266.707794 80.378090,266.425537 87.536301,266.425537 
	C87.536301,257.420685 87.536301,248.833359 87.536301,239.669815 
	C80.966499,239.669815 74.552109,239.669815 67.291779,239.725983 
M308.163818,259.121521 
	C307.538574,263.734283 310.029297,266.289215 314.188965,266.532440 
	C320.869751,266.923065 327.590088,266.637207 334.547852,266.637207 
	C334.547852,257.534180 334.547852,248.839233 334.547852,239.779602 
	C327.602997,239.779602 320.844849,239.591431 314.103821,239.849670 
	C310.014404,240.006332 307.875763,242.362061 308.118805,246.750031 
	C308.329681,250.556641 308.163116,254.384171 308.163818,259.121521 
M462.754333,258.564270 
	C461.641663,258.773071 459.820465,258.644928 459.534241,259.246735 
	C457.977844,262.519318 455.134705,261.963379 453.305878,260.705994 
	C452.168549,259.924072 452.458069,257.066772 452.002533,254.566681 
	C458.222748,254.566681 463.482361,254.566681 469.061829,254.566681 
	C469.061829,251.619720 468.904602,249.132812 469.096191,246.673065 
	C469.443481,242.213486 467.182312,240.084229 463.051819,239.892654 
	C458.238525,239.669403 453.402771,239.620239 448.589294,239.811615 
	C444.795654,239.962433 442.373749,241.753235 442.520966,246.082733 
	C442.679199,250.736877 442.703827,255.406326 442.516113,260.058197 
	C442.355011,264.049957 444.464081,266.211884 447.986237,266.423523 
	C453.268341,266.740906 458.626526,266.732574 463.884979,266.198730 
	C467.912384,265.789886 470.014771,263.215759 468.609528,258.564148 
	C466.914581,258.564148 465.263184,258.564148 462.754333,258.564270 
M42.463104,266.749969 
	C44.944695,266.605255 47.475445,266.718689 49.896786,266.257568 
	C53.904003,265.494507 56.034325,263.235687 54.508270,258.306335 
	C51.458725,258.636200 48.379921,258.830811 45.355579,259.345459 
	C43.360405,259.684967 41.443558,260.484802 39.491634,261.078522 
	C38.971916,259.186890 38.452194,257.295258 37.714230,254.609283 
	C44.026981,254.609283 49.416317,254.609283 54.731239,254.609283 
	C56.001953,240.578568 55.214546,239.818634 42.478222,239.623001 
	C25.134518,239.356598 28.714365,242.082489 28.599318,253.646667 
	C28.469128,266.732941 28.584892,266.749664 42.463104,266.749969 
M186.134903,266.759186 
	C186.957169,265.499573 188.433655,264.268250 188.489548,262.975494 
	C188.744904,257.069489 188.601700,251.146240 188.601700,245.089233 
	C191.100952,245.089233 192.851486,245.089233 195.258026,245.089233 
	C195.258026,252.335983 195.258026,259.368988 195.258026,266.452332 
	C198.826508,266.452332 201.728043,266.452332 205.009094,266.452332 
	C205.009094,259.031006 205.276031,251.896362 204.812180,244.809555 
	C204.702942,243.140320 202.213379,240.366486 200.676636,240.265549 
	C193.354172,239.784515 185.982651,240.050156 178.877930,240.050156 
	C178.877930,249.143768 178.877930,257.856140 178.877930,266.761597 
	C181.281174,266.761597 183.267456,266.761597 186.134903,266.759186 
M350.958008,266.726715 
	C351.455109,265.161591 352.331146,263.608398 352.380859,262.029175 
	C352.556488,256.449554 352.449249,250.861008 352.449249,245.240936 
	C355.082947,245.240936 356.959473,245.240936 359.364441,245.240936 
	C359.364441,252.514893 359.364441,259.423950 359.364441,266.473358 
	C362.800812,266.473358 365.699341,266.473358 368.979370,266.473358 
	C368.979370,259.070496 369.284882,251.928574 368.760529,244.848129 
	C368.632446,243.118591 365.877319,240.316345 364.170380,240.191574 
	C356.991241,239.666840 349.751617,239.969788 342.729218,239.969788 
	C342.729218,249.094025 342.729218,257.821930 342.729218,266.757507 
	C345.446930,266.757507 347.766571,266.757507 350.958008,266.726715 
M117.862000,240.361618 
	C112.065536,240.173172 106.246284,239.627136 100.485245,239.994354 
	C98.524559,240.119354 95.485001,242.217545 95.018738,243.968185 
	C90.300186,261.684723 95.687263,268.155640 113.496666,266.719513 
	C114.486389,266.639709 115.480728,266.472626 116.443604,266.229858 
	C120.290291,265.259918 122.098000,263.052460 120.482147,257.921844 
	C115.420425,259.089050 110.420189,260.242065 105.140244,261.459564 
	C105.140244,255.504822 105.140244,250.301437 105.140244,244.799942 
	C107.184280,244.919037 109.793274,244.405807 110.297119,245.210587 
	C113.138885,249.749451 117.141693,247.464203 122.483269,248.038193 
	C120.776031,244.852646 119.665466,242.780441 117.862000,240.361618 
M29.175503,232.471283 
	C28.283298,231.305847 27.425409,229.161819 26.493484,229.129150 
	C18.742056,228.857330 10.976972,228.974991 3.011304,228.974991 
	C3.011304,231.233780 3.011304,233.005219 3.011304,234.895218 
	C5.647554,235.037338 8.078401,235.168381 10.975964,235.324600 
	C10.975964,245.824615 10.975964,256.042969 10.975964,266.424255 
	C14.518988,266.424255 17.565750,266.424255 21.052521,266.424255 
	C21.052521,255.878479 21.052521,245.650681 21.052521,236.178299 
	C24.173645,235.068680 26.669882,234.181213 29.175503,232.471283 
M168.110703,239.650253 
	C165.833969,239.650253 163.557236,239.650253 161.329102,239.650253 
	C161.329102,248.923508 161.329102,257.632629 161.329102,266.483398 
	C164.511429,266.483398 167.402496,266.483398 170.794785,266.483398 
	C170.794785,257.976501 170.834045,249.738464 170.715912,241.502701 
	C170.707016,240.883301 169.575729,240.279999 168.110703,239.650253 
M167.102158,234.959579 
	C168.462830,233.635818 169.823486,232.312057 171.184158,230.988297 
	C169.288467,230.024231 167.464478,228.835831 165.464920,228.196686 
	C164.551422,227.904694 163.147385,228.462845 162.217529,229.040558 
	C159.845947,230.514008 159.479996,232.388092 162.121231,233.904953 
	C163.333298,234.601074 164.912094,234.658661 167.102158,234.959579 
z"/>
<path fill="#2F3031" opacity="1.000000" stroke="none" 
	d="
M501.000000,247.562500 
	C497.616730,246.469910 493.575958,248.495239 490.184601,245.129456 
	C488.482056,243.439774 484.778595,244.319931 485.005829,248.842575 
	C485.295258,254.602936 485.075958,260.388855 485.075958,266.454163 
	C481.721466,266.454163 478.799713,266.454163 475.467682,266.454163 
	C475.467682,257.825562 475.467682,249.125931 475.467682,239.236450 
	C483.627991,239.922958 491.944733,240.622635 500.630737,241.161163 
	C501.000000,243.041672 501.000000,245.083328 501.000000,247.562500 
z"/>
<path fill="#2D2E2F" opacity="1.000000" stroke="none" 
	d="
M275.545593,254.548233 
	C274.936432,254.413757 274.124207,254.633301 274.119232,254.869781 
	C274.039642,258.655609 274.063110,262.443573 274.063110,266.482666 
	C270.864532,266.482666 268.094757,266.482666 264.951660,266.482666 
	C264.951660,254.134720 264.951660,241.767090 264.951660,229.356766 
	C265.524811,229.220535 265.993622,229.030960 266.470612,229.007355 
	C274.687836,228.600616 274.664886,228.613327 277.440094,236.441971 
	C279.034363,240.939285 280.718079,245.404907 282.664703,250.711243 
	C284.540222,245.633942 286.233704,241.345795 287.712250,236.984741 
	C290.719666,228.113922 290.671814,228.097702 300.550232,229.446106 
	C300.550232,241.627686 300.550232,253.852356 300.550232,266.412537 
	C297.584381,266.412537 294.693329,266.412537 291.225250,266.412537 
	C291.225250,262.339142 291.225250,258.339355 291.225250,254.339584 
	C290.872650,254.279465 290.520020,254.219360 290.167419,254.159241 
	C288.882477,257.472809 287.781586,260.877075 286.216797,264.052765 
	C285.638336,265.226746 283.982056,266.533203 282.792725,266.557190 
	C281.587250,266.581543 279.800842,265.366913 279.236145,264.219086 
	C277.778564,261.256226 276.854950,258.030731 275.545593,254.548233 
z"/>
<path fill="#2F3031" opacity="1.000000" stroke="none" 
	d="
M212.338531,242.533203 
	C214.470901,241.362762 216.374008,239.914337 218.341095,239.821518 
	C224.777023,239.517776 231.236267,239.707504 238.220810,239.707504 
	C238.220810,251.096741 238.426468,262.204285 237.993958,273.286957 
	C237.930771,274.906128 234.959457,277.526855 233.102432,277.748840 
	C227.851685,278.376495 222.448776,278.364166 217.167084,277.902710 
	C212.819931,277.522949 210.833374,274.683990 212.141541,269.823181 
	C215.800446,270.401306 220.113953,267.522919 222.866669,272.657135 
	C223.229492,273.333862 225.943344,272.750061 227.957886,272.750061 
	C227.957886,270.748993 227.957886,268.878204 227.957886,267.050415 
	C227.520233,266.901672 227.229782,266.711517 226.944641,266.719116 
	C208.434753,267.214203 211.860825,264.463867 211.788574,251.823517 
	C211.771530,248.841782 212.014969,245.858551 212.338531,242.533203 
M221.687820,257.424805 
	C221.329636,263.076691 224.889755,261.277191 227.975830,260.945801 
	C227.975830,255.487198 227.975830,250.323730 227.975830,245.182678 
	C225.727142,245.182678 223.867264,245.182678 221.686539,245.182678 
	C221.686539,249.210876 221.686539,252.829559 221.687820,257.424805 
z"/>
<path fill="#2F3031" opacity="1.000000" stroke="none" 
	d="
M435.970703,265.927002 
	C435.970642,267.746094 435.977600,269.078918 435.969299,270.411682 
	C435.933533,276.139984 434.415527,277.851166 428.663940,278.084137 
	C424.340088,278.259247 419.989746,278.330536 415.675842,278.058014 
	C410.567596,277.735260 409.041870,275.406006 409.989716,269.742401 
	C413.363983,270.694000 417.647858,267.279480 420.238129,272.537262 
	C420.628540,273.329681 423.597961,272.851501 425.710754,272.981812 
	C425.710754,270.652740 425.710754,268.763428 425.710754,266.871277 
	C405.835846,266.803772 409.603577,265.293732 409.400665,250.384369 
	C409.264130,240.350662 410.051392,239.672180 420.121063,239.661636 
	C425.244568,239.656281 430.368042,239.660706 435.970703,239.660706 
	C435.970703,248.539368 435.970703,256.990021 435.970703,265.927002 
M422.575745,261.443451 
	C423.739960,260.475403 425.817230,259.586334 425.908966,258.525543 
	C426.288849,254.132492 426.068390,249.687531 426.068390,244.998581 
	C423.648895,244.998581 421.748108,244.998581 419.236847,244.998581 
	C419.236847,249.952301 419.139954,254.704926 419.343903,259.444611 
	C419.373627,260.135834 420.839142,260.765289 422.575745,261.443451 
z"/>
<path fill="#313233" opacity="1.000000" stroke="none" 
	d="
M146.455444,239.654449 
	C153.799240,240.518906 154.603058,241.373978 154.619919,247.987457 
	C154.635178,253.968414 154.623138,259.949463 154.623138,266.343018 
	C151.312439,266.343018 148.275391,266.343018 144.786972,266.343018 
	C144.786972,259.478027 144.786972,252.526627 144.786972,245.220993 
	C142.447098,245.220993 140.532410,245.220993 138.129974,245.220993 
	C138.129974,252.122147 138.129974,259.043030 138.129974,266.357910 
	C134.618439,266.357910 131.582870,266.357910 127.960724,266.357910 
	C127.960724,260.002441 127.960724,253.726334 127.960724,247.450226 
	C127.960724,241.148224 127.960724,234.846237 127.960724,228.226181 
	C131.350555,228.226181 134.387314,228.226181 137.817963,228.226181 
	C137.817963,232.051880 137.817963,235.663879 137.817963,239.652435 
	C140.805374,239.652435 143.409225,239.652435 146.455444,239.654449 
z"/>
<path fill="#2F3031" opacity="1.000000" stroke="none" 
	d="
M375.725555,255.830215 
	C375.725494,252.542236 375.951782,249.699280 375.675903,246.905884 
	C375.174957,241.833771 377.917419,239.863403 382.354401,239.741074 
	C388.780670,239.563873 395.215454,239.695679 401.916748,239.695679 
	C401.916748,248.667435 401.916748,257.382843 401.916748,266.539551 
	C395.005707,266.539551 388.150391,266.905670 381.353271,266.433472 
	C374.936554,265.987732 375.542053,260.840332 375.725555,255.830215 
M386.260468,260.983185 
	C388.342651,260.435852 392.130463,260.096313 392.226654,259.306946 
	C392.795471,254.638931 392.507050,249.866455 392.507050,245.131470 
	C389.759644,245.131470 387.861328,245.131470 385.741516,245.131470 
	C385.741516,250.436493 385.741516,255.396393 386.260468,260.983185 
z"/>
<path fill="#313233" opacity="1.000000" stroke="none" 
	d="
M67.714752,239.697906 
	C74.552109,239.669815 80.966499,239.669815 87.536301,239.669815 
	C87.536301,248.833359 87.536301,257.420685 87.536301,266.425537 
	C80.378090,266.425537 73.365883,266.707794 66.392014,266.312927 
	C62.596062,266.097992 60.705391,263.467987 60.941582,259.377350 
	C61.171120,255.401825 61.209805,251.387650 60.935860,247.417816 
	C60.607105,242.653763 62.664940,240.218002 67.714752,239.697906 
M77.249748,260.910767 
	C77.599480,255.740219 77.949219,250.569672 78.312485,245.198975 
	C75.446671,245.198975 73.425232,245.198975 70.974289,245.198975 
	C70.974289,249.195984 71.239105,252.837204 70.906807,256.423096 
	C70.497650,260.838318 72.316559,262.148315 77.249748,260.910767 
z"/>
<path fill="#313233" opacity="1.000000" stroke="none" 
	d="
M308.163574,258.661987 
	C308.163116,254.384171 308.329681,250.556641 308.118805,246.750031 
	C307.875763,242.362061 310.014404,240.006332 314.103821,239.849670 
	C320.844849,239.591431 327.602997,239.779602 334.547852,239.779602 
	C334.547852,248.839233 334.547852,257.534180 334.547852,266.637207 
	C327.590088,266.637207 320.869751,266.923065 314.188965,266.532440 
	C310.029297,266.289215 307.538574,263.734283 308.163574,258.661987 
M324.327850,245.108231 
	C318.050629,244.523285 318.049866,244.523285 318.044464,250.801132 
	C318.042480,253.117249 317.653076,255.528900 318.186005,257.715210 
	C318.529572,259.124634 320.030518,260.897919 321.364716,261.280426 
	C323.858582,261.995453 325.297760,260.679779 325.121368,257.747864 
	C324.883331,253.792206 324.964539,249.817352 324.327850,245.108231 
z"/>
<path fill="#2F3031" opacity="1.000000" stroke="none" 
	d="
M463.183044,258.564209 
	C465.263184,258.564148 466.914581,258.564148 468.609528,258.564148 
	C470.014771,263.215759 467.912384,265.789886 463.884979,266.198730 
	C458.626526,266.732574 453.268341,266.740906 447.986237,266.423523 
	C444.464081,266.211884 442.355011,264.049957 442.516113,260.058197 
	C442.703827,255.406326 442.679199,250.736877 442.520966,246.082733 
	C442.373749,241.753235 444.795654,239.962433 448.589294,239.811615 
	C453.402771,239.620239 458.238525,239.669403 463.051819,239.892654 
	C467.182312,240.084229 469.443481,242.213486 469.096191,246.673065 
	C468.904602,249.132812 469.061829,251.619720 469.061829,254.566681 
	C463.482361,254.566681 458.222748,254.566681 452.002533,254.566681 
	C452.458069,257.066772 452.168549,259.924072 453.305878,260.705994 
	C455.134705,261.963379 457.977844,262.519318 459.534241,259.246735 
	C459.820465,258.644928 461.641663,258.773071 463.183044,258.564209 
M458.956177,245.567932 
	C452.929016,243.780716 451.920959,244.383591 452.819305,249.238205 
	C458.408112,249.945297 458.408112,249.945297 458.956177,245.567932 
z"/>
<path fill="#2F3031" opacity="1.000000" stroke="none" 
	d="
M41.994179,266.749939 
	C28.584892,266.749664 28.469128,266.732941 28.599318,253.646667 
	C28.714365,242.082489 25.134518,239.356598 42.478222,239.623001 
	C55.214546,239.818634 56.001953,240.578568 54.731239,254.609283 
	C49.416317,254.609283 44.026981,254.609283 37.714230,254.609283 
	C38.452194,257.295258 38.971916,259.186890 39.491638,261.078552 
	C41.443558,260.484802 43.360405,259.684967 45.355579,259.345459 
	C48.379921,258.830811 51.458725,258.636200 54.508270,258.306335 
	C56.034325,263.235687 53.904003,265.494507 49.896786,266.257568 
	C47.475445,266.718689 44.944695,266.605255 41.994179,266.749939 
M44.279247,244.982300 
	C41.216728,244.777267 37.284332,243.424164 38.494598,249.626480 
	C41.311775,248.840103 46.064121,252.255875 44.279247,244.982300 
z"/>
<path fill="#323334" opacity="1.000000" stroke="none" 
	d="
M185.694305,266.760376 
	C183.267456,266.761597 181.281174,266.761597 178.877930,266.761597 
	C178.877930,257.856140 178.877930,249.143768 178.877930,240.050156 
	C185.982651,240.050156 193.354172,239.784515 200.676636,240.265549 
	C202.213379,240.366486 204.702942,243.140320 204.812180,244.809555 
	C205.276031,251.896362 205.009094,259.031006 205.009094,266.452332 
	C201.728043,266.452332 198.826508,266.452332 195.258026,266.452332 
	C195.258026,259.368988 195.258026,252.335983 195.258026,245.089233 
	C192.851486,245.089233 191.100952,245.089233 188.601700,245.089233 
	C188.601700,251.146240 188.744904,257.069489 188.489548,262.975494 
	C188.433655,264.268250 186.957169,265.499573 185.694305,266.760376 
z"/>
<path fill="#323334" opacity="1.000000" stroke="none" 
	d="
M350.522125,266.742126 
	C347.766571,266.757507 345.446930,266.757507 342.729218,266.757507 
	C342.729218,257.821930 342.729218,249.094025 342.729218,239.969788 
	C349.751617,239.969788 356.991241,239.666840 364.170380,240.191574 
	C365.877319,240.316345 368.632446,243.118591 368.760529,244.848129 
	C369.284882,251.928574 368.979370,259.070496 368.979370,266.473358 
	C365.699341,266.473358 362.800812,266.473358 359.364441,266.473358 
	C359.364441,259.423950 359.364441,252.514893 359.364441,245.240936 
	C356.959473,245.240936 355.082947,245.240936 352.449249,245.240936 
	C352.449249,250.861008 352.556488,256.449554 352.380859,262.029175 
	C352.331146,263.608398 351.455109,265.161591 350.522125,266.742126 
z"/>
<path fill="#313233" opacity="1.000000" stroke="none" 
	d="
M118.208450,240.534943 
	C119.665466,242.780441 120.776031,244.852646 122.483269,248.038193 
	C117.141693,247.464203 113.138885,249.749451 110.297119,245.210587 
	C109.793274,244.405807 107.184280,244.919037 105.140244,244.799942 
	C105.140244,250.301437 105.140244,255.504822 105.140244,261.459564 
	C110.420189,260.242065 115.420425,259.089050 120.482147,257.921844 
	C122.098000,263.052460 120.290291,265.259918 116.443604,266.229858 
	C115.480728,266.472626 114.486389,266.639709 113.496666,266.719513 
	C95.687263,268.155640 90.300186,261.684723 95.018738,243.968185 
	C95.485001,242.217545 98.524559,240.119354 100.485245,239.994354 
	C106.246284,239.627136 112.065536,240.173172 118.208450,240.534943 
z"/>
<path fill="#2F3031" opacity="1.000000" stroke="none" 
	d="
M29.170811,232.882523 
	C26.669882,234.181213 24.173645,235.068680 21.052521,236.178299 
	C21.052521,245.650681 21.052521,255.878479 21.052521,266.424255 
	C17.565750,266.424255 14.518988,266.424255 10.975964,266.424255 
	C10.975964,256.042969 10.975964,245.824615 10.975964,235.324600 
	C8.078401,235.168381 5.647554,235.037338 3.011304,234.895218 
	C3.011304,233.005219 3.011304,231.233780 3.011304,228.974991 
	C10.976972,228.974991 18.742056,228.857330 26.493484,229.129150 
	C27.425409,229.161819 28.283298,231.305847 29.170811,232.882523 
z"/>
<path fill="#323334" opacity="1.000000" stroke="none" 
	d="
M168.538452,239.659729 
	C169.575729,240.279999 170.707016,240.883301 170.715912,241.502701 
	C170.834045,249.738464 170.794785,257.976501 170.794785,266.483398 
	C167.402496,266.483398 164.511429,266.483398 161.329102,266.483398 
	C161.329102,257.632629 161.329102,248.923508 161.329102,239.650253 
	C163.557236,239.650253 165.833969,239.650253 168.538452,239.659729 
z"/>
<path fill="#38393A" opacity="1.000000" stroke="none" 
	d="
M166.713379,234.982697 
	C164.912094,234.658661 163.333298,234.601074 162.121231,233.904953 
	C159.479996,232.388092 159.845947,230.514008 162.217529,229.040558 
	C163.147385,228.462845 164.551422,227.904694 165.464920,228.196686 
	C167.464478,228.835831 169.288467,230.024231 171.184143,230.988281 
	C169.823486,232.312057 168.462830,233.635818 166.713379,234.982697 
z"/>
<path fill="#FFFFFF" opacity="1.000000" stroke="none" 
	d="
M221.687180,256.936523 
	C221.686539,252.829559 221.686539,249.210876 221.686539,245.182678 
	C223.867264,245.182678 225.727142,245.182678 227.975830,245.182678 
	C227.975830,250.323730 227.975830,255.487198 227.975830,260.945801 
	C224.889755,261.277191 221.329636,263.076691 221.687180,256.936523 
z"/>
<path fill="#F4F4F4" opacity="1.000000" stroke="none" 
	d="
M422.108002,261.433411 
	C420.839142,260.765289 419.373627,260.135834 419.343903,259.444611 
	C419.139954,254.704926 419.236847,249.952301 419.236847,244.998581 
	C421.748108,244.998581 423.648895,244.998581 426.068390,244.998581 
	C426.068390,249.687531 426.288849,254.132492 425.908966,258.525543 
	C425.817230,259.586334 423.739960,260.475403 422.108002,261.433411 
z"/>
<path fill="#EDEDED" opacity="1.000000" stroke="none" 
	d="
M386.000977,260.669739 
	C385.741516,255.396393 385.741516,250.436493 385.741516,245.131470 
	C387.861328,245.131470 389.759644,245.131470 392.507050,245.131470 
	C392.507050,249.866455 392.795471,254.638931 392.226654,259.306946 
	C392.130463,260.096313 388.342651,260.435852 386.000977,260.669739 
z"/>
<path fill="#F4F4F4" opacity="1.000000" stroke="none" 
	d="
M76.803604,261.068298 
	C72.316559,262.148315 70.497650,260.838318 70.906807,256.423096 
	C71.239105,252.837204 70.974289,249.195984 70.974289,245.198975 
	C73.425232,245.198975 75.446671,245.198975 78.312485,245.198975 
	C77.949219,250.569672 77.599480,255.740219 76.803604,261.068298 
z"/>
<path fill="#F4F4F4" opacity="1.000000" stroke="none" 
	d="
M324.618286,245.479492 
	C324.964539,249.817352 324.883331,253.792206 325.121368,257.747864 
	C325.297760,260.679779 323.858582,261.995453 321.364716,261.280426 
	C320.030518,260.897919 318.529572,259.124634 318.186005,257.715210 
	C317.653076,255.528900 318.042480,253.117249 318.044464,250.801132 
	C318.049866,244.523285 318.050629,244.523285 324.618286,245.479492 
z"/>
<path fill="#DEDEDE" opacity="1.000000" stroke="none" 
	d="
M459.080109,245.996841 
	C458.408112,249.945297 458.408112,249.945297 452.819305,249.238205 
	C451.920959,244.383591 452.929016,243.780716 459.080109,245.996841 
z"/>
<path fill="#DEDEDE" opacity="1.000000" stroke="none" 
	d="
M44.618324,245.277390 
	C46.064121,252.255875 41.311775,248.840103 38.494598,249.626480 
	C37.284332,243.424164 41.216728,244.777267 44.618324,245.277390 
z"/>
</svg>